<svg width="40" height="40" viewBox="0 0 40 40" fill="none" xmlns="http://www.w3.org/2000/svg">
<g clip-path="url(#clip0_3_2)">
<path fill-rule="evenodd" clip-rule="evenodd" d="M8.67854 1.95981C11.0094 2.72984 13.257 3.6837 15.4041 4.79712C16.1672 5.18907 16.9199 5.61224 17.6588 6.04932C19.3341 7.03788 20.9435 8.13398 22.4767 9.32368C23.3369 9.99312 24.1728 10.6903 24.9844 11.4153C25.4041 11.7899 25.81 12.168 26.2123 12.5565C26.632 12.9588 27.0413 13.3681 27.4436 13.7878C28.2692 14.6446 29.06 15.5325 29.8127 16.4482C29.8162 16.4482 29.8162 16.4517 29.8197 16.4517C30.111 16.802 30.3989 17.1628 30.6833 17.5304C32.4385 19.785 33.9819 22.2061 35.2966 24.7693C35.5602 25.2792 35.8134 25.7995 36.0562 26.3233C36.9164 28.172 37.6622 30.0867 38.2796 32.0534C38.6576 33.2812 38.9941 34.5334 39.2716 35.803C39.5768 37.18 39.8196 38.5813 40 40V0H0C2.35514 0.291358 4.65833 0.766559 6.88863 1.40475C7.48523 1.58165 8.08547 1.76557 8.67854 1.95981ZM27.8221 13.3746L27.8533 13.3399L27.9192 13.4405L27.8221 13.3746Z" fill="white"/>
</g>
<defs>
<clipPath id="clip0_3_2">
<rect width="40" height="40" fill="white"/>
</clipPath>
</defs>
</svg>
