<svg width="95" height="41" viewBox="0 0 95 41" fill="none" xmlns="http://www.w3.org/2000/svg">
<g clip-path="url(#clip0_1_6)">
<path d="M54.832 6.78C52.72 6.78 51.488 7.704 50.982 9.772L50.52 6.978H48.54V22.378H51.048V15.36C51.576 17.318 52.786 18.198 54.832 18.198C57.978 18.198 59.32 16.482 59.32 12.478C59.32 8.474 57.978 6.758 54.832 6.758V6.78ZM53.93 8.606C55.954 8.606 56.812 9.772 56.812 12.478C56.812 15.184 55.954 16.35 53.93 16.35C51.906 16.35 51.048 15.184 51.048 12.478C51.048 9.772 51.906 8.606 53.93 8.606ZM64.556 18V7H62.048V18H64.556ZM63.302 2.27C62.202 2.27 61.74 2.71 61.74 3.744C61.74 4.778 62.202 5.24 63.28 5.24C64.38 5.24 64.864 4.778 64.864 3.744C64.864 2.732 64.38 2.27 63.302 2.27ZM69.726 7H67.064L69.902 12.28L66.844 18H69.528L72.212 12.522L74.786 18H77.47L74.522 12.28L77.25 7H74.566L72.212 12.038L69.748 7H69.726ZM89.548 13.512V12.654C89.548 8.54 87.92 6.78 84.158 6.78C80.374 6.78 78.768 8.496 78.768 12.5C78.768 16.504 80.374 18.22 84.158 18.22C87.106 18.22 88.602 17.142 89.108 14.656H86.732C86.358 16.02 85.632 16.548 84.158 16.548C82.31 16.548 81.43 15.624 81.232 13.512H89.548ZM84.136 8.452C86.16 8.452 87.018 9.464 87.018 11.994H81.188C81.298 9.508 82.2 8.452 84.136 8.452ZM91.968 18H94.454V2.6H91.968V18ZM54.832 24.78C52.72 24.78 51.488 25.704 50.982 27.772L50.52 24.978H48.54V40.378H51.048V33.36C51.576 35.318 52.786 36.198 54.832 36.198C57.978 36.198 59.32 34.482 59.32 30.478C59.32 26.474 57.978 24.758 54.832 24.758V24.78ZM53.93 26.606C55.954 26.606 56.812 27.772 56.812 30.478C56.812 33.184 55.954 34.35 53.93 34.35C51.906 34.35 51.048 33.184 51.048 30.478C51.048 27.772 51.906 26.606 53.93 26.606ZM64.556 36V25H62.048V36H64.556ZM63.302 20.27C62.202 20.27 61.74 20.71 61.74 21.744C61.74 22.778 62.202 23.24 63.28 23.24C64.38 23.24 64.864 22.778 64.864 21.744C64.864 20.732 64.38 20.27 63.302 20.27ZM78.064 31.512V30.654C78.064 26.54 76.436 24.78 72.674 24.78C68.89 24.78 67.284 26.496 67.284 30.5C67.284 34.504 68.89 36.22 72.674 36.22C75.622 36.22 77.118 35.142 77.624 32.656H75.248C74.874 34.02 74.148 34.548 72.674 34.548C70.826 34.548 69.946 33.624 69.748 31.512H78.064ZM72.652 26.452C74.676 26.452 75.534 27.464 75.534 29.994H69.704C69.814 27.508 70.716 26.452 72.652 26.452ZM85.544 26.892H86.93V24.78H85.786C84.092 24.78 83.234 25.704 82.882 27.662L82.442 25H80.462V36H82.97V30.5C82.97 27.794 83.542 26.892 85.522 26.892H85.544ZM11.1902 28.8098H19.6312L14.9966 40H7.38616L5.22199 34.7782L0.00021474 32.6161V25.0057L11.1904 20.3711V28.8121L11.1902 28.8098ZM28.8098 11.1902H20.3688L25.0034 0H32.6138L34.778 5.22178L39.9998 7.38595V14.9964L28.8096 19.631L28.8098 11.1902ZM11.1902 11.1902V19.6312L0 14.9966V7.38616L5.22178 5.22199L7.38595 0.00021474H14.9964L19.631 11.1904L11.1902 11.1902ZM28.8098 28.8098V20.3688L40 25.0034V32.6138L34.7782 34.7759L32.6141 39.9977H25.0036L20.369 28.8075H28.81L28.8098 28.8098Z" fill="black"/>
</g>
<defs>
<clipPath id="clip0_1_6">
<rect width="95" height="41" fill="white"/>
</clipPath>
</defs>
</svg>
